<?xml version="1.0" standalone="no"?>
<!DOCTYPE svg PUBLIC "-//W3C//DTD SVG 20010904//EN"
 "http://www.w3.org/TR/2001/REC-SVG-20010904/DTD/svg10.dtd">
<svg version="1.0" xmlns="http://www.w3.org/2000/svg"
 width="300.000000pt" height="300.000000pt" viewBox="0 0 300.000000 300.000000"
 preserveAspectRatio="xMidYMid meet">
<metadata>
Created by potrace 1.10, written by Peter Selinger 2001-2011
</metadata>
<g transform="translate(0.000000,300.000000) scale(0.100000,-0.100000)"
fill="#000000" stroke="none">
<path d="M166 2967 c-81 -36 -164 -151 -146 -201 5 -15 10 -8 25 30 31 81 95
139 188 168 9 3 17 9 17 14 0 14 -41 9 -84 -11z"/>
<path d="M2750 2980 c0 -4 20 -15 44 -24 63 -24 129 -86 155 -145 25 -59 41
-73 36 -32 -8 64 -78 156 -140 185 -37 18 -95 27 -95 16z"/>
<path d="M2250 2509 c-90 -15 -196 -73 -270 -148 -107 -108 -146 -216 -138
-382 10 -189 55 -259 355 -552 118 -115 156 -185 157 -290 2 -127 -55 -202
-176 -233 -75 -19 -160 -13 -197 14 -14 10 -34 35 -44 55 -24 48 -24 190 -1
272 19 66 29 173 20 211 -13 52 -123 71 -201 35 -88 -41 -181 -156 -231 -286
-70 -183 -29 -414 95 -540 107 -109 220 -155 403 -163 126 -5 187 3 308 42
249 79 452 273 499 476 15 67 13 246 -4 310 -30 115 -80 195 -190 306 l-103
104 58 31 c77 41 142 106 177 177 35 72 44 208 19 295 -33 112 -126 208 -241
247 -70 25 -212 34 -295 19z m255 -35 c107 -27 194 -95 235 -180 31 -68 46
-183 32 -250 -29 -141 -127 -242 -269 -278 l-42 -11 78 -63 c128 -103 206
-206 246 -326 32 -95 42 -210 26 -302 -52 -300 -386 -538 -751 -537 -344 2
-541 178 -542 483 0 112 22 192 79 289 50 84 137 164 197 181 49 13 108 9 132
-11 20 -17 17 -79 -11 -199 -38 -164 -30 -294 22 -352 34 -38 74 -51 153 -51
102 1 177 30 228 88 48 55 66 113 60 202 -6 118 -35 162 -238 363 -162 161
-180 182 -219 260 -54 110 -68 191 -53 301 15 105 60 198 126 264 54 53 167
119 232 134 64 15 214 12 279 -5z"/>
<path d="M2277 2226 c-44 -12 -77 -33 -103 -65 -9 -11 -6 -28 11 -72 28 -71
70 -133 144 -212 l58 -61 43 55 c59 74 92 149 97 223 6 78 -15 109 -89 131
-61 18 -97 18 -161 1z m166 -29 c47 -20 59 -40 59 -99 -1 -58 -52 -176 -94
-215 -28 -26 -33 -23 -107 66 -53 65 -101 154 -101 189 0 21 36 49 79 62 42
13 129 11 164 -3z"/>
<path d="M809 2489 c-210 -23 -452 -142 -577 -284 -69 -79 -88 -137 -54 -168
36 -33 115 -21 352 51 109 33 287 69 296 59 6 -6 -29 -121 -55 -182 -35 -82
-105 -333 -147 -525 -9 -41 -22 -102 -29 -135 -46 -212 -68 -394 -69 -560 -1
-185 7 -217 60 -251 40 -27 196 -15 268 20 90 44 98 62 107 245 9 177 9 174
50 481 12 96 111 700 135 833 l16 87 37 0 c20 0 128 -5 240 -10 237 -11 275
-6 327 48 18 19 36 44 40 56 3 11 17 45 30 74 13 29 24 66 24 82 0 32 -31 68
-65 75 -38 8 -920 11 -986 4z m814 -26 c246 -8 249 -11 174 -163 -65 -130 -53
-125 -340 -122 -133 1 -260 4 -282 7 l-41 6 -17 -123 c-9 -68 -37 -240 -62
-383 -59 -341 -91 -573 -105 -770 -6 -88 -14 -193 -17 -233 -6 -94 -37 -134
-120 -158 -77 -22 -207 -24 -228 -3 -68 67 -38 468 70 939 56 246 157 576 205
671 11 21 20 42 20 47 0 20 -194 -18 -421 -83 -199 -57 -265 -67 -276 -39 -16
43 88 173 198 246 119 79 242 130 372 153 81 15 558 19 870 8z"/>
<path d="M2973 238 c-5 -7 -17 -32 -27 -55 -23 -53 -79 -107 -138 -133 -57
-25 -68 -39 -28 -34 77 9 178 99 200 178 13 48 10 67 -7 44z"/>
<path d="M17 227 c-17 -44 96 -182 166 -204 58 -18 66 2 11 26 -64 28 -118 82
-144 142 -22 53 -25 56 -33 36z"/>
</g>
</svg>
